<svg version="1.1" xmlns="http://www.w3.org/2000/svg" viewBox="0 0 1000 790"
					preserveAspectRatio="xMidYMid meet">
                    <g id="Floor-Tom" data-svg-origin="281.9492645263672 643.1699829101562"
							style="transform-origin: 0px 0px 0px; transform: matrix(1, 0, 0, 1, 0, 0);">
							<g id="Floor-Tom-Drum">
								<path d="M160.34,314.87H402.83V585.25H160.34V314.87Z" transform="translate(-0.23)"
									fill="#303030" stroke="#000000" stroke-linecap="round" stroke-linejoin="round"
									stroke-width="8"></path>
								<path d="M399.45,339.38H163.72" transform="translate(-0.23)" fill="none"
									stroke="#202020" stroke-miterlimit="10" stroke-width="8"></path>
								<g>
									<path
										d="M167.1,367.26a6.76,6.76,0,0,1-13.52,0v-16.9a6.76,6.76,0,0,1,13.52,0v16.9Zm242.49,0a6.76,6.76,0,1,1-13.52,0v-16.9a6.76,6.76,0,0,1,13.52,0v16.9Z"
										transform="translate(-0.23)" fill="#eefaf9" stroke="#000000"
										stroke-linecap="round" stroke-linejoin="round" stroke-width="6"></path>
									<path d="M241.45,343.6v-11" transform="translate(-0.23)" fill="none"
										stroke="#000000" stroke-linecap="round" stroke-linejoin="round"
										stroke-width="8"></path>
									<path d="M248.21,367.26a6.76,6.76,0,1,1-13.52,0v-16.9a6.76,6.76,0,0,1,13.52,0v16.9Z"
										transform="translate(-0.23)" fill="#eefaf9" stroke="#000000"
										stroke-linecap="round" stroke-linejoin="round" stroke-width="6"></path>
									<g>
										<path d="M321.72,343.6v-11" transform="translate(-0.23)" fill="none"
											stroke="#000000" stroke-linecap="round" stroke-linejoin="round"
											stroke-width="8"></path>
										<path
											d="M328.48,367.26a6.76,6.76,0,1,1-13.52,0v-16.9a6.76,6.76,0,0,1,13.52,0v16.9Z"
											transform="translate(-0.23)" fill="#eefaf9" stroke="#000000"
											stroke-linecap="round" stroke-linejoin="round" stroke-width="6"></path>
									</g>
								</g>
								<path d="M152.74,314.87H409.59v17.74H152.74V314.87Z" transform="translate(-0.23)"
									fill="#eefaf9" stroke="#000000" stroke-linecap="round" stroke-linejoin="round"
									stroke-width="8"></path>
								<path d="M156.12,327.55h250.1" transform="translate(-0.23)" fill="none" stroke="#bcece8"
									stroke-miterlimit="10" stroke-width="4"></path>
								<g>
									<g>
										<path
											d="M409.59,549.76a6.76,6.76,0,1,1-13.52,0v-16.9a6.76,6.76,0,0,1,13.52,0v16.9Zm-242.49,0a6.76,6.76,0,0,1-13.52,0v-16.9a6.76,6.76,0,0,1,13.52,0v16.9Z"
											transform="translate(-0.23)" fill="#eefaf9" stroke="#000000"
											stroke-linecap="round" stroke-linejoin="round" stroke-width="6"></path>
										<path d="M321.72,556.52v11" transform="translate(-0.23)" fill="none"
											stroke="#000000" stroke-linecap="round" stroke-linejoin="round"
											stroke-width="8"></path>
										<path
											d="M328.48,549.76a6.76,6.76,0,1,1-13.52,0v-16.9a6.76,6.76,0,0,1,13.52,0v16.9Z"
											transform="translate(-0.23)" fill="#eefaf9" stroke="#000000"
											stroke-linecap="round" stroke-linejoin="round" stroke-width="6"></path>
										<g>
											<path d="M241.45,556.52v11" transform="translate(-0.23)" fill="none"
												stroke="#000000" stroke-linecap="round" stroke-linejoin="round"
												stroke-width="8"></path>
											<path
												d="M248.21,549.76a6.76,6.76,0,1,1-13.52,0v-16.9a6.76,6.76,0,0,1,13.52,0v16.9Z"
												transform="translate(-0.23)" fill="#eefaf9" stroke="#000000"
												stroke-linecap="round" stroke-linejoin="round" stroke-width="6">
											</path>
										</g>
									</g>
									<path d="M153.58,567.51H410.44v17.74H153.58V567.51Z" transform="translate(-0.23)"
										fill="#eefaf9" stroke="#000000" stroke-linecap="round" stroke-linejoin="round"
										stroke-width="8"></path>
									<path d="M157,580.18h250.1" transform="translate(-0.23)" fill="none"
										stroke="#bcece8" stroke-miterlimit="10" stroke-width="4"></path>
								</g>
							</g>
							<g id="Floor-Tom-Legs">
								<path
									d="M147.92,521.71l-9.55,44.53v64.38a4.73,4.73,0,0,0,4.65,4.82,4.67,4.67,0,0,0,4.65-4.82V567.25l9.55-44.53,9.38-44.53,3-14-9.21-1.86-12.42,59.4h0Z"
									transform="translate(-0.23)" fill="#eefaf9" stroke="#000000" stroke-linecap="round"
									stroke-linejoin="round" stroke-width="6"></path>
								<path
									d="M153.92,625l-5.75-9.29h-9.29L133.3,625a11.43,11.43,0,0,0-1.69,6.17,12,12,0,0,0,12,12,12.13,12.13,0,0,0,12-12.17,14.12,14.12,0,0,0-1.69-6h0Z"
									transform="translate(-0.23)" fill="#5c5c5c" stroke="#000000" stroke-linecap="round"
									stroke-linejoin="round" stroke-width="6"></path>
								<path d="M170.48,429.78a8.88,8.88,0,0,0-17.74,0v49h17.74v-49Z"
									transform="translate(-0.23)" fill="#eefaf9" stroke="#000000" stroke-linecap="round"
									stroke-linejoin="round" stroke-width="6"></path>
								<g>
									<path
										d="M278.63,630.62a4.73,4.73,0,0,0,4.65,4.82,4.67,4.67,0,0,0,4.65-4.82V477.1h-9.29V630.62Z"
										transform="translate(-0.23)" fill="#eefaf9" stroke="#000000"
										stroke-linecap="round" stroke-linejoin="round" stroke-width="6"></path>
									<path
										d="M294.18,625l-5.75-9.29h-9.29L273.56,625a11.43,11.43,0,0,0-1.69,6.17,12,12,0,0,0,12,12,12.13,12.13,0,0,0,12-12.17,14.12,14.12,0,0,0-1.69-6h0Z"
										transform="translate(-0.23)" fill="#5c5c5c" stroke="#000000"
										stroke-linecap="round" stroke-linejoin="round" stroke-width="6"></path>
									<path d="M292.15,429.78a8.88,8.88,0,0,0-17.74,0v49h17.74v-49Z"
										transform="translate(-0.23)" fill="#eefaf9" stroke="#000000"
										stroke-linecap="round" stroke-linejoin="round" stroke-width="6"></path>
								</g>
								<g>
									<path
										d="M416,521.71l-12-59.57L395,464l2.87,14,9,44.53,8.79,44.53v63.37a4.73,4.73,0,0,0,4.65,4.82,4.67,4.67,0,0,0,4.65-4.82V566.07L416,521.71h0Z"
										transform="translate(-0.23)" fill="#eefaf9" stroke="#000000"
										stroke-linecap="round" stroke-linejoin="round" stroke-width="6"></path>
									<path
										d="M431.05,625l-5.75-9.29H416L410.44,625a11.43,11.43,0,0,0-1.69,6.17,12,12,0,0,0,12,12,12.13,12.13,0,0,0,12-12.17,14.12,14.12,0,0,0-1.69-6h0Z"
										transform="translate(-0.23)" fill="#5c5c5c" stroke="#000000"
										stroke-linecap="round" stroke-linejoin="round" stroke-width="6"></path>
									<path d="M392.7,429.78a8.88,8.88,0,0,1,17.74,0v49H392.7v-49Z"
										transform="translate(-0.23)" fill="#eefaf9" stroke="#000000"
										stroke-linecap="round" stroke-linejoin="round" stroke-width="6"></path>
								</g>
							</g>
						</g>
</svg>