<svg version="1.1" xmlns="http://www.w3.org/2000/svg" viewBox="0 0 1000 790"
					preserveAspectRatio="xMidYMid meet">
                    <g id="Main-Kit">
							<g id="Toms">
								<g id="Tom-Rack">
									<path
										d="M478,215.85a8.51,8.51,0,0,1,8.45,8.62v85.34c0,5.07-16.9,5.07-16.9,0V224.47A8.51,8.51,0,0,1,478,215.85Zm36.33,94V224.47a8.45,8.45,0,1,1,16.9,0v85.34C531.26,314.54,514.36,314.54,514.36,309.81Z"
										transform="translate(-0.23)" fill="#eefaf9" stroke="#000000"
										stroke-linecap="round" stroke-linejoin="round" stroke-width="6"></path>
									<path
										d="M540.22,309.81a9.27,9.27,0,0,1-9.29,9.29H470.09a9.29,9.29,0,0,1,0-18.59h60.83A9.27,9.27,0,0,1,540.22,309.81Z"
										transform="translate(-0.23)" fill="#eefaf9" stroke="#000000"
										stroke-linecap="round" stroke-linejoin="round" stroke-width="6"></path>
								</g>
								<g id="Tom-Left-All" data-svg-origin="489.0400085449219 224.47000885009766"
									style="transform-origin: 0px 0px 0px; transform: matrix(1, 0, 0, 1, 0, 0);">
									<g id="Tom-Left-Drum" data-svg-origin="351.9049987792969 224.47000885009766"
										style="transform-origin: 0px 0px 0px; transform: matrix(1, 0, 0, 1, 0, 0);">
										<path d="M259.2,146.74H445.93V302.2H259.2V146.74Z" transform="translate(-0.23)"
											fill="#303030" stroke="#000000" stroke-linecap="round"
											stroke-linejoin="round" stroke-width="8"></path>
										<path d="M262.58,171.24h180" transform="translate(-0.23)" fill="none"
											stroke="#202020" stroke-miterlimit="10" stroke-width="8"></path>
										<g>
											<path
												d="M265.11,197.43a6.76,6.76,0,0,1-13.52,0v-16.9a6.76,6.76,0,0,1,13.52,0v16.9Zm187.57,0a6.76,6.76,0,1,1-13.52,0v-16.9a6.76,6.76,0,0,1,13.52,0v16.9Z"
												transform="translate(-0.23)" fill="#f8fdfd" stroke="#000000"
												stroke-linecap="round" stroke-linejoin="round" stroke-width="6">
											</path>
											<path d="M320.88,173.77v-11" transform="translate(-0.23)" fill="#f8fdfd"
												stroke="#000000" stroke-linecap="round" stroke-linejoin="round"
												stroke-width="8"></path>
											<path
												d="M327.64,197.43a6.76,6.76,0,1,1-13.52,0v-16.9a6.76,6.76,0,0,1,13.52,0v16.9Z"
												transform="translate(-0.23)" fill="#f8fdfd" stroke="#000000"
												stroke-linecap="round" stroke-linejoin="round" stroke-width="6">
											</path>
											<g>
												<path d="M383.4,173.77v-11" transform="translate(-0.23)" fill="#f8fdfd"
													stroke="#000000" stroke-linecap="round" stroke-linejoin="round"
													stroke-width="8"></path>
												<path
													d="M390.16,197.43a6.76,6.76,0,1,1-13.52,0v-16.9a6.76,6.76,0,0,1,13.52,0v16.9Z"
													transform="translate(-0.23)" fill="#f8fdfd" stroke="#000000"
													stroke-linecap="round" stroke-linejoin="round" stroke-width="6">
												</path>
											</g>
										</g>
										<path d="M251.59,146.74H452.68v17.74H251.59V146.74Z"
											transform="translate(-0.23)" fill="#f8fdfd" stroke="#000000"
											stroke-linecap="round" stroke-linejoin="round" stroke-width="8"></path>
										<path d="M449.3,159.41H255" transform="translate(-0.23)" fill="none"
											stroke="#bcece8" stroke-miterlimit="10" stroke-width="4"></path>
										<g>
											<g>
												<path
													d="M452.68,268.4a6.76,6.76,0,1,1-13.52,0v-16.9a6.76,6.76,0,1,1,13.52,0v16.9Zm-187.57,0a6.76,6.76,0,0,1-13.52,0v-16.9a6.76,6.76,0,0,1,13.52,0v16.9Z"
													transform="translate(-0.23)" fill="#eefaf9" stroke="#000000"
													stroke-linecap="round" stroke-linejoin="round" stroke-width="6">
												</path>
												<path d="M383.4,275.16v11" transform="translate(-0.23)" fill="#eefaf9"
													stroke="#000000" stroke-linecap="round" stroke-linejoin="round"
													stroke-width="8"></path>
												<path
													d="M390.16,268.4a6.76,6.76,0,0,1-13.52,0v-16.9a6.76,6.76,0,1,1,13.52,0v16.9Z"
													transform="translate(-0.23)" fill="#eefaf9" stroke="#000000"
													stroke-linecap="round" stroke-linejoin="round" stroke-width="6">
												</path>
												<g>
													<path d="M320.88,275.16v11" transform="translate(-0.23)"
														fill="#eefaf9" stroke="#000000" stroke-linecap="round"
														stroke-linejoin="round" stroke-width="8"></path>
													<path
														d="M327.64,268.4a6.76,6.76,0,1,1-13.52,0v-16.9a6.76,6.76,0,1,1,13.52,0v16.9Z"
														transform="translate(-0.23)" fill="#eefaf9" stroke="#000000"
														stroke-linecap="round" stroke-linejoin="round" stroke-width="6">
													</path>
												</g>
											</g>
											<path d="M251.59,284.46H452.68V302.2H251.59V284.46Z"
												transform="translate(-0.23)" fill="#f8fdfd" stroke="#000000"
												stroke-linecap="round" stroke-linejoin="round" stroke-width="8">
											</path>
											<path d="M449.3,298H255" transform="translate(-0.23)" fill="none"
												stroke="#bcece8" stroke-miterlimit="10" stroke-width="4"></path>
										</g>
									</g>
									<path
										d="M435.79,233.85a9.23,9.23,0,0,1-9.21,9.21h-4.31a9.23,9.23,0,0,1-9.21-9.21V215.17a9.23,9.23,0,0,1,9.21-9.21h4.31a9.23,9.23,0,0,1,9.21,9.21v18.67Z"
										transform="translate(-0.23)" fill="#eefaf9" stroke="#000000"
										stroke-linecap="round" stroke-linejoin="round" stroke-width="6"></path>
									<path
										d="M432.83,237.14h-16a6.68,6.68,0,0,0,5.83,3.38H427A6.58,6.58,0,0,0,432.83,237.14Z"
										transform="translate(-0.23)" fill="#bcece8"></path>
									<path
										d="M431.65,232.92h45.54c5.07,0,9-3.72,9-8.45A8.16,8.16,0,0,0,478,216H431.65A8.45,8.45,0,1,0,431.65,232.92Z"
										transform="translate(-0.23)" fill="#eefaf9" stroke="#000000"
										stroke-linecap="round" stroke-linejoin="round" stroke-width="6"></path>
									<path d="M483.36,227H426.07a6,6,0,0,0,5.49,3.38h46A6.08,6.08,0,0,0,483.36,227Z"
										transform="translate(-0.23)" fill="#bcece8"></path>
									<circle cx="477.8" cy="224.3" r="11.24" fill="#eefaf9" stroke="#000000"
										stroke-linecap="round" stroke-linejoin="round" stroke-width="6"></circle>
									<path d="M480.06,221.6a3.39,3.39,0,1,0,.76,4.73A3.38,3.38,0,0,0,480.06,221.6Z"
										transform="translate(-0.23)" fill="#000000"></path>
								</g>
								<g id="Tom-Right-All" data-svg-origin="512.1000366210938 224.47000885009766"
									style="transform: matrix(1, 0, 0, 1, 0, 0); transform-origin: 0px 0px 0px;">
									<g id="Tom-Right-Drum" data-svg-origin="648.4750061035156 224.47000885009766"
										style="transform-origin: 0px 0px 0px; transform: matrix(1, 0, 0, 1, 0, 0);">
										<path d="M555.76,146.74H742.49V302.2H555.76V146.74Z"
											transform="translate(-0.23)" fill="#303030" stroke="#000000"
											stroke-linecap="round" stroke-linejoin="round" stroke-width="8"></path>
										<path d="M559.14,171.24h180" transform="translate(-0.23)" fill="none"
											stroke="#202020" stroke-miterlimit="10" stroke-width="8"></path>
										<g>
											<path
												d="M561.68,197.43a6.76,6.76,0,0,1-13.52,0v-16.9a6.76,6.76,0,0,1,13.52,0v16.9Zm187.57,0a6.76,6.76,0,1,1-13.52,0v-16.9a6.76,6.76,0,0,1,13.52,0v16.9Z"
												transform="translate(-0.23)" fill="#f8fdfd" stroke="#000000"
												stroke-linecap="round" stroke-linejoin="round" stroke-width="6">
											</path>
											<path d="M617.44,173.77v-11" transform="translate(-0.23)" fill="#f8fdfd"
												stroke="#000000" stroke-linecap="round" stroke-linejoin="round"
												stroke-width="8"></path>
											<path
												d="M624.2,197.43a6.76,6.76,0,0,1-13.52,0v-16.9a6.76,6.76,0,0,1,13.52,0v16.9Z"
												transform="translate(-0.23)" fill="#f8fdfd" stroke="#000000"
												stroke-linecap="round" stroke-linejoin="round" stroke-width="6">
											</path>
											<g>
												<path d="M680,173.77v-11" transform="translate(-0.23)" fill="#f8fdfd"
													stroke="#000000" stroke-linecap="round" stroke-linejoin="round"
													stroke-width="8"></path>
												<path
													d="M686.73,197.43a6.76,6.76,0,1,1-13.52,0v-16.9a6.76,6.76,0,0,1,13.52,0v16.9Z"
													transform="translate(-0.23)" fill="#f8fdfd" stroke="#000000"
													stroke-linecap="round" stroke-linejoin="round" stroke-width="6">
												</path>
											</g>
										</g>
										<path d="M548.16,146.74H749.25v17.74H548.16V146.74Z"
											transform="translate(-0.23)" fill="#f8fdfd" stroke="#000000"
											stroke-linecap="round" stroke-linejoin="round" stroke-width="8"></path>
										<path d="M745.87,159.41H551.54" transform="translate(-0.23)" fill="none"
											stroke="#bcece8" stroke-miterlimit="10" stroke-width="4"></path>
										<g>
											<g>
												<path
													d="M749.25,268.4a6.76,6.76,0,1,1-13.52,0v-16.9a6.76,6.76,0,1,1,13.52,0v16.9Zm-187.57,0a6.76,6.76,0,0,1-13.52,0v-16.9a6.76,6.76,0,0,1,13.52,0v16.9Z"
													transform="translate(-0.23)" fill="#eefaf9" stroke="#000000"
													stroke-linecap="round" stroke-linejoin="round" stroke-width="6">
												</path>
												<path d="M680,275.16v11" transform="translate(-0.23)" fill="#eefaf9"
													stroke="#000000" stroke-linecap="round" stroke-linejoin="round"
													stroke-width="8"></path>
												<path
													d="M686.73,268.4a6.76,6.76,0,1,1-13.52,0v-16.9a6.76,6.76,0,1,1,13.52,0v16.9Z"
													transform="translate(-0.23)" fill="#eefaf9" stroke="#000000"
													stroke-linecap="round" stroke-linejoin="round" stroke-width="6">
												</path>
												<g>
													<path d="M617.44,275.16v11" transform="translate(-0.23)"
														fill="#eefaf9" stroke="#000000" stroke-linecap="round"
														stroke-linejoin="round" stroke-width="8"></path>
													<path
														d="M624.2,268.4a6.76,6.76,0,1,1-13.52,0v-16.9a6.76,6.76,0,0,1,13.52,0v16.9Z"
														transform="translate(-0.23)" fill="#eefaf9" stroke="#000000"
														stroke-linecap="round" stroke-linejoin="round" stroke-width="6">
													</path>
												</g>
											</g>
											<path d="M548.16,284.46H749.25V302.2H548.16V284.46Z"
												transform="translate(-0.23)" fill="#f8fdfd" stroke="#000000"
												stroke-linecap="round" stroke-linejoin="round" stroke-width="8">
											</path>
											<path d="M745.87,298H551.54" transform="translate(-0.23)" fill="none"
												stroke="#bcece8" stroke-miterlimit="10" stroke-width="4"></path>
										</g>
									</g>
									<path
										d="M587.87,215.09a9.23,9.23,0,0,0-9.21-9.21h-4.31a9.23,9.23,0,0,0-9.21,9.21v18.67a9.23,9.23,0,0,0,9.21,9.21h4.31a9.23,9.23,0,0,0,9.21-9.21V215.09Z"
										transform="translate(-0.23)" fill="#eefaf9" stroke="#000000"
										stroke-linecap="round" stroke-linejoin="round" stroke-width="6"></path>
									<path
										d="M568.78,237.14h16a6.68,6.68,0,0,1-5.83,3.38h-4.31A6.78,6.78,0,0,1,568.78,237.14Z"
										transform="translate(-0.23)" fill="#bcece8"></path>
									<path
										d="M570,232.92H523.66a8.31,8.31,0,0,1-8.62-8.45,8.51,8.51,0,0,1,8.62-8.45H570A8.45,8.45,0,1,1,570,232.92Z"
										transform="translate(-0.23)" fill="#eefaf9" stroke="#000000"
										stroke-linecap="round" stroke-linejoin="round" stroke-width="6"></path>
									<path d="M518.25,227h57.29a6,6,0,0,1-5.49,3.38H524a6.16,6.16,0,0,1-5.75-3.38h0Z"
										transform="translate(-0.23)" fill="#bcece8"></path>
									<circle cx="523.34" cy="224.3" r="11.24" fill="#eefaf9" stroke="#000000"
										stroke-linecap="round" stroke-linejoin="round" stroke-width="6"></circle>
									<path d="M521.63,221.6a3.39,3.39,0,1,1-.76,4.73A3.38,3.38,0,0,1,521.63,221.6Z"
										transform="translate(-0.23)" fill="#000000"></path>
								</g>
							</g>
							<g id="Kick" data-svg-origin="500.32005310058594 667.199951171875"
								style="transform: matrix(1, 0, 0, 1, 0.00235, 0.00313); transform-origin: 0px 0px 0px;">
								<g id="Kick-Stand">
									<path
										d="M314.29,460.45a8.89,8.89,0,0,1,17.74.84l-2.28,49L312,509.46Zm11.24,49.68L319,651.58a4.68,4.68,0,0,1-4.9,4.56,4.61,4.61,0,0,1-4.39-5l6.51-141.44Z"
										transform="translate(-0.23)" fill="#eefaf9" stroke="#000000"
										stroke-linecap="round" stroke-linejoin="round" stroke-width="6"></path>
									<path
										d="M304.23,645.24l6.17-9,9.29,0.34,5.15,9.46c1,2.53,1.52,4.06,1.44,6.34a12,12,0,0,1-12.5,11.41,12.19,12.19,0,0,1-11.41-12.67A12.83,12.83,0,0,1,304.23,645.24Z"
										transform="translate(-0.23)" fill="#5c5c5c" stroke="#000000"
										stroke-linecap="round" stroke-linejoin="round" stroke-width="6"></path>
									<g>
										<path
											d="M686.81,460.45a8.89,8.89,0,0,0-17.74.84l2.28,49,17.74-.84Zm-11.24,49.68,6.51,141.44a4.68,4.68,0,0,0,4.9,4.56,4.61,4.61,0,0,0,4.39-5l-6.51-141.44Z"
											transform="translate(-0.23)" fill="#eefaf9" stroke="#000000"
											stroke-linecap="round" stroke-linejoin="round" stroke-width="6"></path>
										<path
											d="M696.87,645.24l-6.17-9-9.29.34-5.15,9.46c-1,2.53-1.52,4.06-1.44,6.34a12,12,0,0,0,12.5,11.41,12.19,12.19,0,0,0,11.41-12.67,13.91,13.91,0,0,0-1.86-5.91h0Z"
											transform="translate(-0.23)" fill="#5c5c5c" stroke="#000000"
											stroke-linecap="round" stroke-linejoin="round" stroke-width="6"></path>
									</g>
								</g>
								<g id="Kick-Drum">
									<circle cx="500.28" cy="489.77" r="177.43" fill="#303030" stroke="#000000"
										stroke-linecap="round" stroke-linejoin="round" stroke-width="8"></circle>
									<circle id="Inner-Drum-Wobble" cx="500.28" cy="489.77" r="170" fill="none">
									</circle>
									<circle id="Inner-Drum" cx="500.28" cy="489.77" r="162.73" fill="#fdfffc"
										stroke="#000000" stroke-linecap="round" stroke-linejoin="round"
										stroke-width="8">
									</circle>
									<g id="Drum-Logo-Wobble">
										<path
											d="M454,369.12l-3.63,16.81H451c6,0,10.31-7,10.31-12.67,0-4.06-2.28-7.6-7.94-7.6-11.74,0-19.52,6.59-19.52,17.57a9.43,9.43,0,0,0,1,4.9c-5,0-7.77-1.77-7.77-7,0-9.63,13.35-18.84,25.43-18.84,11.41,0,16.39,5.66,16.39,11.58,0,4.39-2.79,9.46-7.77,12.34,3.8,1.1,5,3.8,5,7.27,0,5.91-3.55,13.86-3.55,18.33a5,5,0,0,0,2.79,4.82,28.5,28.5,0,0,1-7.18,1.27c-4.73,0-5.66-2.45-5.66-4.82,0-4.82,3.8-13.52,3.8-19,0-2.87-1.1-4.9-4.31-4.9a11.75,11.75,0,0,0-2.28.25l-5.83,27.29H433.5l9.89-46Zm74.44,11.15a10.5,10.5,0,0,0-6.25,2.11L525.6,366l-10.73,1.44-8,37.6a17.54,17.54,0,0,0-.42,3.38,7.55,7.55,0,0,1-3.8,1.61c-2.87,0-3.63-1.18-3.63-2.79,0-.68.17-1.69,0.25-2.45l5.24-24.84H494.09l-5.24,24.84a14.42,14.42,0,0,0-.42,2.53c-1.77,1.44-3.63,2.7-5.15,2.7-2.87,0-3.63-1.1-3.63-2.7,0-.68.17-1.69,0.25-2.45L485.13,380H474.74l-5.24,24.84a21.76,21.76,0,0,0-.42,3.8c0,5.41,3.46,7.94,9,7.94,3.13,0,7-2.87,10.39-6.08,0.68,4.22,4,6.08,8.87,6.08,2.79,0,6.25-2.37,9.38-5.15,1.27,4,5.58,5.41,11.49,5.41,12.93,0,19.18-16,19.18-27.38C537.51,385.17,535.32,380.27,528.39,380.27Zm-8.53,31.35c-2.2,0-3.21-.51-3.21-2.7a23.67,23.67,0,0,1,.59-4l4.14-19.43a11.05,11.05,0,0,1,3.89-1c1.77,0,4.14,1,4.14,5.32,0,5.32-3.55,21.8-9.55,21.8h0Zm34.22-31.26-5.32,24.59a7.47,7.47,0,0,0-.34,2.28c0,1.61.76,2.7,3.63,2.7,1.69,0,3.63-1.27,5.49-2.87l5.66-26.7h10.48l-8.87,42c-2.2,10.31-8.36,12.34-13.18,12.34-4.39,0-8.53-3.13-8.53-7.86,0-6.76,5.66-8.87,12.5-10.81l1.1-5c-3.3,3-6.93,5.58-9.8,5.58-5.66,0-9-2.45-9-7.86a20.88,20.88,0,0,1,.42-3.72l5.07-24.59h10.65v-0.08ZM550,428.26c1.44,0,3.38-1.35,4.31-5.66l0.84-4.31c-4.56,1.52-8,3.63-8,7.52C547.06,426.83,548.41,428.26,550,428.26Zm-117.61-2.7H536.33"
											transform="translate(-0.23)" fill="none"></path>
									</g>
									<g id="Codrops">


									</g>
									<path d="M319.19,481.07a8.87,8.87,0,1,0,0,17.74v7.86h16.9v-33.8h-16.9v8.2Z"
										transform="translate(-0.23)" fill="#eefaf9" stroke="#000000"
										stroke-linecap="round" stroke-linejoin="round" stroke-width="8"></path>
									<path d="M318.17,490a1.69,1.69,0,1,0,1.69-1.69A1.69,1.69,0,0,0,318.17,490Z"
										transform="translate(-0.23)" fill="#000000"></path>
									<path d="M331,503.29v-27" transform="translate(-0.23)" fill="none" stroke="#bcece8"
										stroke-miterlimit="10" stroke-width="4"></path>
									<path
										d="M402.58,641.94a8.84,8.84,0,1,0,15.29,8.87l6.84,4,8.45-14.62-29.23-16.9-8.45,14.62Z"
										transform="translate(-0.23)" fill="#eefaf9" stroke="#000000"
										stroke-linecap="round" stroke-linejoin="round" stroke-width="8"></path>
									<path
										d="M409.59,647.77a1.71,1.71,0,0,0,2.28-.59,1.67,1.67,0,0,0-2.87-1.69A1.57,1.57,0,0,0,409.59,647.77Z"
										transform="translate(-0.23)" fill="#000000"></path>
									<path d="M427.84,642.87l-23.4-13.52" transform="translate(-0.23)" fill="none"
										stroke="#bcece8" stroke-miterlimit="10" stroke-width="4"></path>
									<g>
										<path
											d="M583.39,650.73a8.84,8.84,0,0,0,15.29-8.87l6.76-3.89L597,623.35l-29.23,16.9,8.45,14.62,7.18-4.14h0Z"
											transform="translate(-0.23)" fill="#eefaf9" stroke="#000000"
											stroke-linecap="round" stroke-linejoin="round" stroke-width="8"></path>
										<path d="M591.93,647.52a1.67,1.67,0,1,0-2.28-.59A1.68,1.68,0,0,0,591.93,647.52Z"
											transform="translate(-0.23)" fill="#000000"></path>
										<path d="M596.74,629.35l-23.49,13.52" transform="translate(-0.23)" fill="none"
											stroke="#bcece8" stroke-miterlimit="10" stroke-width="4">
										</path>
									</g>
									<g>
										<path d="M680.81,498.48a8.87,8.87,0,1,0,0-17.74v-7.86h-16.9v33.8h16.9v-8.2Z"
											transform="translate(-0.23)" fill="#eefaf9" stroke="#000000"
											stroke-linecap="round" stroke-linejoin="round" stroke-width="8"></path>
										<path
											d="M682.93,489.44a1.69,1.69,0,1,0-1.69,1.69A1.69,1.69,0,0,0,682.93,489.44Z"
											transform="translate(-0.23)" fill="#000000"></path>
										<path d="M669,476.25v27" transform="translate(-0.23)" fill="none"
											stroke="#bcece8" stroke-miterlimit="10" stroke-width="4"></path>
									</g>
									<g>
										<path
											d="M598.52,337.43a8.84,8.84,0,0,0-15.29-8.87l-6.76-3.89L568,339.29l29.23,16.9,8.45-14.62-7.18-4.14h0Z"
											transform="translate(-0.23)" fill="#eefaf9" stroke="#000000"
											stroke-linecap="round" stroke-linejoin="round" stroke-width="8"></path>
										<path
											d="M591.5,331.69a1.71,1.71,0,0,0-2.28.59A1.67,1.67,0,1,0,592.1,334,1.66,1.66,0,0,0,591.5,331.69Z"
											transform="translate(-0.23)" fill="#000000"></path>
										<path d="M573.42,336.67l23.4,13.52" transform="translate(-0.23)" fill="none"
											stroke="#bcece8" stroke-miterlimit="10" stroke-width="4"></path>
									</g>
									<g>
										<path
											d="M417.7,328.82a8.84,8.84,0,1,0-15.29,8.87l-6.84,4L404,356.28l29.23-16.9-8.45-14.62Z"
											transform="translate(-0.23)" fill="#eefaf9" stroke="#000000"
											stroke-linecap="round" stroke-linejoin="round" stroke-width="8"></path>
										<path
											d="M409.09,331.94a1.68,1.68,0,0,0-.59,2.28,1.67,1.67,0,0,0,2.87-1.69A1.64,1.64,0,0,0,409.09,331.94Z"
											transform="translate(-0.23)" fill="#000000"></path>
										<path d="M404.27,350.19l23.49-13.52" transform="translate(-0.23)" fill="none"
											stroke="#bcece8" stroke-miterlimit="10" stroke-width="4">
										</path>
									</g>
								</g>
							</g>
						</g>
</svg>